<svg xmlns="http://www.w3.org/2000/svg" viewBox="0 0 60 40"><defs><style>.a{fill:#aaa;}</style></defs><title>broken</title><circle class="a" cx="24" cy="16.5" r="2"/><polygon class="a" points="35.91 10.5 35.31 12.5 40 12.5 40 27.5 30.87 27.5 30.28 29.5 42 29.5 42 10.5 35.91 10.5"/><path class="a" d="M31.17,26.5H39V23.64c-2-2.77-3-6.65-4.88-7.1Z"/><path class="a" d="M33,6.22,31.77,10.5H18v19h8.14L25,33.22l1.92.56,8-27Zm-4.73,16a2.87,2.87,0,0,0-2.06-1.39c-2,0-2.67,4.15-5.25,5v.72h6l-.3,1H20v-15H31.18Z"/></svg>